<?xml version="1.0" encoding="UTF-8" standalone="no"?>
<svg
   version="1.1"
   viewBox="0 0 494.97528 186.83707"
   id="svg1248"
   sodipodi:docname="Logo_MD.svg"
   width="494.97528"
   height="186.83707"
   inkscape:version="1.1.1 (3bf5ae0d25, 2021-09-20)"
   xmlns:inkscape="http://www.inkscape.org/namespaces/inkscape"
   xmlns:sodipodi="http://sodipodi.sourceforge.net/DTD/sodipodi-0.dtd"
   xmlns="http://www.w3.org/2000/svg"
   xmlns:svg="http://www.w3.org/2000/svg">
  <defs
     id="defs1252" />
  <sodipodi:namedview
     id="namedview1250"
     pagecolor="#ffffff"
     bordercolor="#666666"
     borderopacity="1.0"
     inkscape:pageshadow="2"
     inkscape:pageopacity="0.0"
     inkscape:pagecheckerboard="0"
     showgrid="false"
     inkscape:zoom="1.3144424"
     inkscape:cx="371.64047"
     inkscape:cy="148.73227"
     inkscape:window-width="1920"
     inkscape:window-height="991"
     inkscape:window-x="-9"
     inkscape:window-y="-9"
     inkscape:window-maximized="1"
     inkscape:current-layer="svg1248" />
  <path
     fill="#ffffff"
     d="m -159.93,-177.39559 h 816 v 4.57 q -3.19,-3.56 -9,-3.56 -155.85,-0.02 -311.71,0 l -286.03,0.01 -139.95,-0.01 q -31.3,-0.04 -62.56,0.02 -3.78,0.01 -6.75,2.62 z"
     id="path1176" />
  <path
     fill="#eaa159"
     d="m 228.02,54.464414 c -22.47,-16.91 -40.11,-29.71 -48.22,-54.05999959 q -0.23,-0.67 0.33,-0.23 12.5,9.91999959 24.97,19.84999959 11.1,8.86 14.62,13.53 6.77,8.99 8.67,20.68 0.09,0.58 -0.37,0.23 z"
     id="path1186" />
  <path
     fill="#eaa159"
     d="M 316.65,0.47441441 C 308.36,24.904414 290.14,38.224414 268.35,54.524414 q -0.55,0.41 -0.44,-0.27 1.74,-11.04 7.94,-19.69 3.46,-4.83 13.48,-12.89 13.41,-10.81 26.97,-21.44999959 0.59,-0.46 0.35,0.25 z"
     id="path1188" />
  <path
     fill="#eaa159"
     d="m 253.6,88.324414 c 1.96,-9.73 7.87,-19.39 14.87,-26.23 q 4.18,-4.09 15.87,-11.52 17.92,-11.39 35.93,-22.71 0.61,-0.39 0.3,0.26 -11.38,23.47 -32.45,38.79 -7.52,5.47 -34.18,21.65 -0.45,0.28 -0.34,-0.24 z"
     id="path1190" />
  <path
     fill="#eaa159"
     d="m 200.1,60.314414 c -10.3,-9.27 -17.58,-19.48 -24.15,-32 q -0.5,-0.95 0.4,-0.37 17.48,11.07 34.96,22.13 11.96,7.58 16.17,11.66 10.99,10.65 15.33,26.34 0.27,0.97 -0.59,0.44 -12.97,-8.03 -26,-16.44 -10.8,-6.97 -16.12,-11.76 z"
     id="path1192" />
  <path
     fill="#eaa159"
     d="m 240.82,106.02441 q -23.79,-10.179996 -37.59,-32.079996 -0.38,-0.61 0.27,-0.29 25.28,12.27 36.64,18.33 3.28,1.75 7.67,5.72 0.38,0.34 0.76,-0.01 4.09,-3.77 9.01,-6.32 17.55,-9.09 35.32,-17.75 0.79,-0.38 0.32,0.36 -13.87,21.84 -37.65,32.059996 -0.46,0.2 -0.25,0.66 l 3.46,7.48 q 0.48,1.05 -0.56,0.54 l -9.48,-4.64 q -0.5,-0.25 -0.99,-0.01 l -9.72,4.74 q -0.85,0.41 -0.45,-0.45 l 3.53,-7.58 q 0.24,-0.53 -0.29,-0.76 z"
     id="path1194" />
  <path
     fill="#ffffff"
     d="m 74.38,182.37441 -0.04,3.47 q -0.01,0.51 -0.51,0.51 h -4.06 a 0.56,0.55 0 0 1 -0.56,-0.55 l -0.01,-41.39 q 0,-0.56 0.56,-0.56 h 4.28 a 0.47,0.47 0 0 1 0.47,0.47 l -0.01,18.29 q 0,0.53 0.37,0.14 6.18,-6.48 13.39,-3.57 c 12.9,5.22 10.92,26.92 -4.03,27.56 q -5.58,0.24 -9.53,-4.48 -0.31,-0.37 -0.32,0.11 z m 8.3148,-0.0104 a 8.71,9.76 0.5 0 0 8.7949,-9.6836 8.71,9.76 0.5 0 0 -8.6245,-9.8356 8.71,9.76 0.5 0 0 -8.7949,9.6836 8.71,9.76 0.5 0 0 8.6245,9.8356 z"
     id="path1196"
     style="fill:#1360a4;fill-opacity:1;stroke:none;stroke-width:0.3;stroke-miterlimit:4;stroke-dasharray:none;stroke-opacity:1" />
  <path
     fill="#ffffff"
     d="m 232.83,174.84441 v 11 q 0,0.51 -0.51,0.51 h -4.26 q -0.52,0 -0.52,-0.52 l 0.01,-41.47 q 0,-0.51 0.51,-0.51 h 4.26 q 0.51,-0.01 0.51,0.5 l -0.01,24.54 a 1.21,1.21 0 0 0 2.13,0.78 l 8.79,-10.34 q 0.41,-0.49 1.04,-0.48 h 4.73 q 0.83,0.01 0.28,0.63 l -10.09,11.51 a 0.58,0.58 0 0 0 -0.01,0.75 l 11.57,14.02 q 0.48,0.58 -0.27,0.58 l -5.46,0.01 a 1.1,1.08 70.3 0 1 -0.85,-0.41 l -9.55,-11.91 a 1.29,1.29 0 0 0 -2.3,0.81 z"
     id="path1198"
     style="fill:#1360a4;fill-opacity:1;stroke:none;stroke-width:0.3;stroke-miterlimit:4;stroke-dasharray:none;stroke-opacity:1" />
  <path
     fill="#ffffff"
     d="m 380.7,162.74441 q 6.44,-6.82 13.83,-3.38 c 12.14,5.66 10.33,26.11 -4.04,27.36 q -5.76,0.49 -9.87,-4.28 -0.5,-0.59 -0.51,0.19 l -0.03,3.22 q 0,0.5 -0.51,0.5 h -4.06 q -0.55,0 -0.55,-0.56 l 0.01,-41.39 q 0,-0.56 0.55,-0.56 l 4.14,0.01 q 0.59,0 0.59,0.59 l 0.02,18.13 q 0,0.63 0.43,0.17 z m 7.7548,19.6196 a 8.71,9.76 0.5 0 0 8.7949,-9.6836 8.71,9.76 0.5 0 0 -8.6245,-9.8356 8.71,9.76 0.5 0 0 -8.7949,9.6836 8.71,9.76 0.5 0 0 8.6245,9.8356 z"
     id="path1200"
     style="fill:#1360a4;fill-opacity:1;stroke:none;stroke-width:0.3;stroke-miterlimit:4;stroke-dasharray:none;stroke-opacity:1" />
  <circle
     fill="#ffffff"
     cx="259.58002"
     cy="149.47441"
     r="3.3599999"
     id="circle1202"
     style="fill:#1360a4;fill-opacity:1;stroke:none;stroke-width:0.3;stroke-miterlimit:4;stroke-dasharray:none;stroke-opacity:1" />
  <circle
     fill="#ffffff"
     cx="438.83002"
     cy="149.4644"
     r="3.3599999"
     id="circle1204"
     style="fill:#1360a4;fill-opacity:1;stroke:none;stroke-width:0.3;stroke-miterlimit:4;stroke-dasharray:none;stroke-opacity:1" />
  <path
     fill="#ffffff"
     d="m 0.14,147.39441 a 0.38,0.38 0 0 1 0.38,-0.38 l 12.85,0.04 a 17.69,17.68 0.2 0 1 17.63,17.74 l -0.02,3.98 a 17.69,17.68 0.2 0 1 -17.75,17.62 l -12.85,-0.04 a 0.38,0.38 0 0 1 -0.38,-0.38 z m 5.43,5.06 v 28.54 a 0.4,0.4 0 0 0 0.4,0.4 h 6.91 a 12.37,12.51 0 0 0 12.37,-12.51 v -4.32 a 12.37,12.51 0 0 0 -12.37,-12.51 H 5.97 a 0.4,0.4 0 0 0 -0.4,0.4 z"
     id="path1206"
     style="fill:#1360a4;fill-opacity:1;stroke:none;stroke-width:0.3;stroke-miterlimit:4;stroke-dasharray:none;stroke-opacity:1" />
  <path
     fill="#ffffff"
     d="m 298.46,178.35441 9.19,-30.75 q 0.15,-0.5 0.68,-0.5 h 3.74 a 0.71,0.69 81.6 0 1 0.67,0.51 l 9.19,30.72 q 0.23,0.77 0.45,-0.01 l 8.7,-30.8 q 0.12,-0.43 0.57,-0.42 h 4.63 q 0.6,0 0.44,0.59 l -10.72,38.15 q -0.14,0.51 -0.67,0.51 h -5.53 q -0.54,0 -0.7,-0.52 l -8.59,-27.72 q -0.32,-1 -0.63,0 l -8.57,27.72 q -0.17,0.52 -0.72,0.52 l -5.41,-0.01 q -0.66,0 -0.84,-0.64 l -10.66,-38.02 q -0.16,-0.58 0.44,-0.58 h 4.64 q 0.47,0 0.59,0.45 l 8.67,30.8 a 0.23,0.23 0 0 0 0.44,0 z"
     id="path1208"
     style="fill:#1360a4;fill-opacity:1;stroke:none;stroke-width:0.3;stroke-miterlimit:4;stroke-dasharray:none;stroke-opacity:1" />
  <path
     fill="#ffffff"
     d="m 457.86,163.58441 q -0.08,6.88 -0.08,13.79 0.01,5.53 5.59,4.65 a 0.59,0.59 0 0 1 0.68,0.58 l 0.01,3.02 q 0,0.66 -0.65,0.7 c -5.71,0.38 -10.86,-0.79 -10.86,-7.72 q 0,-7.51 -0.03,-15.02 0,-0.48 -0.48,-0.48 h -4.69 q -0.47,0 -0.46,-0.47 l 0.03,-3.47 a 0.43,0.44 6.3 0 1 0.53,-0.43 c 6.56,1.45 5.36,-4.44 5.54,-8.34 q 0.03,-0.55 0.58,-0.54 h 3.75 q 0.51,0 0.51,0.5 v 8.01 q 0,0.5 0.5,0.49 l 5.23,-0.01 q 0.5,0 0.5,0.5 v 3.27 q 0,0.49 -0.5,0.49 h -5.21 q -0.48,0 -0.49,0.48 z"
     id="path1210"
     style="fill:#1360a4;fill-opacity:1;stroke:none;stroke-width:0.3;stroke-miterlimit:4;stroke-dasharray:none;stroke-opacity:1" />
  <path
     fill="#ffffff"
     d="m 54.11,183.15441 q -5.3,5.16 -12.28,3.09 c -7.26,-2.15 -5.62,-12.65 1.49,-14.64 q 4.65,-1.29 9.06,-1.74 a 2.05,2.05 0 0 0 1.83,-1.82 c 0.8,-7.23 -9.85,-7.71 -11.86,-1.23 q -0.15,0.49 -0.66,0.39 l -3.48,-0.72 q -0.57,-0.11 -0.46,-0.68 c 1.68,-8.69 15.86,-10.06 20.1,-3.59 2.38,3.63 1.88,13.13 1.66,16.89 q -0.19,3.28 2.65,3.52 0.48,0.04 0.47,0.51 l -0.05,2.56 q 0,0.46 -0.45,0.56 -4.81,1 -7.39,-3.02 -0.27,-0.43 -0.63,-0.08 z m -9.24,-0.96 c 5.61,2.27 9.62,-3.2 9.84,-8.23 q 0.02,-0.46 -0.44,-0.41 -6.63,0.74 -8.95,1.62 c -3.62,1.39 -4.19,5.5 -0.45,7.02 z"
     id="path1214"
     style="fill:#1360a4;fill-opacity:1;stroke:none;stroke-width:0.3;stroke-miterlimit:4;stroke-dasharray:none;stroke-opacity:1" />
  <path
     fill="#ffffff"
     d="m 142.4,160.11441 c 9.28,5.91 8.99,20.05 -0.83,25.5 -10.11,3.39 -19.65,-0.85 -20.35,-12.3 -0.75,-12.23 10.86,-18.04 21.18,-13.2 z m -7.3144,22.4299 a 8.8,9.86 0.2 0 0 8.8343,-9.8292 8.8,9.86 0.2 0 0 -8.7655,-9.8906 8.8,9.86 0.2 0 0 -8.8343,9.8292 8.8,9.86 0.2 0 0 8.7655,9.8906 z"
     id="path1216"
     style="fill:#1360a4;fill-opacity:1;stroke:none;stroke-width:0.3;stroke-miterlimit:4;stroke-dasharray:none;stroke-opacity:1" />
  <path
     fill="#ffffff"
     d="m 215.31,166.07441 q -2.79,-5.45 -8.53,-3.5 -2.36,0.8 -2.24,3.3 c 0.17,3.68 6.16,4.21 8.81,5.1 4.9,1.66 8.46,5 6.44,10.34 -3.14,8.28 -18.37,6.83 -20.82,-1.64 a 0.57,0.57 0 0 1 0.4,-0.7 l 3.45,-0.93 q 0.54,-0.15 0.74,0.38 c 2.76,7.44 14.7,4.56 10.96,-1.19 -1.9,-2.93 -8.71,-3.04 -11.83,-5.24 -2.85,-2 -3.84,-5.44 -2.55,-8.61 3.1,-7.62 17.08,-6.51 19.31,1.62 q 0.16,0.58 -0.42,0.72 l -2.95,0.71 q -0.52,0.12 -0.77,-0.36 z"
     id="path1218"
     style="fill:#1360a4;fill-opacity:1;stroke:none;stroke-width:0.3;stroke-miterlimit:4;stroke-dasharray:none;stroke-opacity:1" />
  <path
     fill="#ffffff"
     d="m 346.65,174.05441 q 0.45,9.43 9.95,8.35 3.44,-0.38 5.37,-4.1 0.25,-0.48 0.79,-0.4 l 3.81,0.61 q 0.66,0.1 0.36,0.69 -3.9,7.95 -13.37,7.41 c -6.67,-0.38 -10.47,-4.2 -12,-10.57 -2.59,-10.84 6.55,-20.53 17.68,-16.93 q 8.87,2.87 8.37,13.96 -0.02,0.53 -0.55,0.53 h -19.99 q -0.45,0 -0.42,0.45 z m 0.45,-4.66 15,-0.08 a 0.18,0.18 0 0 0 0.18,-0.18 v -0.11 a 6.69,7.55 89.7 0 0 -7.59,-6.65 h -0.26 a 6.69,7.55 89.7 0 0 -7.51,6.73 v 0.11 a 0.18,0.18 0 0 0 0.18,0.18 z"
     id="path1220"
     style="fill:#1360a4;fill-opacity:1;stroke:none;stroke-width:0.3;stroke-miterlimit:4;stroke-dasharray:none;stroke-opacity:1" />
  <path
     fill="#ffffff"
     d="m 423.74,166.08441 c -1.17,-3.5 -4.85,-4.86 -8.03,-3.59 -3.51,1.41 -3.34,5.72 0.29,6.72 q 5.97,1.64 8.21,2.51 c 4.44,1.71 6.01,7.32 3.51,11.15 -2.51,3.85 -8.67,4.36 -12.88,3.43 q -5.65,-1.24 -7.21,-6.64 -0.16,-0.56 0.4,-0.71 l 3.5,-0.92 q 0.46,-0.13 0.65,0.31 c 4.11,9.36 16.31,2.32 10.02,-2.2 q -0.89,-0.64 -2.6,-1.07 c -4.63,-1.17 -10.48,-2.53 -11.25,-7.77 -1.58,-10.76 16.37,-12.3 19.79,-2.35 a 0.62,0.62 0 0 1 -0.45,0.8 l -3.24,0.73 q -0.54,0.12 -0.71,-0.4 z"
     id="path1222"
     style="fill:#1360a4;fill-opacity:1;stroke:none;stroke-width:0.3;stroke-miterlimit:4;stroke-dasharray:none;stroke-opacity:1" />
  <path
     fill="#ffffff"
     d="m 473.95,174.02441 q 0.53,9.39 9.89,8.39 3.55,-0.38 5.47,-4.12 a 0.69,0.7 18 0 1 0.73,-0.38 l 3.77,0.59 q 0.59,0.09 0.35,0.64 -2.64,6.12 -8.58,7.19 -13.45,2.41 -16.63,-9.94 c -2.77,-10.72 6.22,-20.9 17.3,-17.39 q 9.28,2.94 8.69,14.03 -0.03,0.57 -0.6,0.57 h -19.99 q -0.42,0 -0.4,0.42 z m 0.43,-4.59 15.1,-0.14 a 0.2,0.2 0 0 0 0.2,-0.2 v -0.08 a 6.7,7.6 89.5 0 0 -7.66,-6.63 h -0.3 a 6.7,7.6 89.5 0 0 -7.54,6.77 v 0.08 a 0.2,0.2 0 0 0 0.2,0.2 z"
     id="path1224"
     style="fill:#1360a4;fill-opacity:1;stroke:none;stroke-width:0.3;stroke-miterlimit:4;stroke-dasharray:none;stroke-opacity:1" />
  <path
     fill="#ffffff"
     d="m 109.69,162.74441 q 2.84,-3.76 7.62,-4.16 a 0.51,0.51 0 0 1 0.55,0.5 l 0.08,4.03 q 0,0.49 -0.48,0.49 c -7.38,0.07 -8.11,4.74 -8.1,11.14 q 0,5.53 -0.01,11.07 0,0.53 -0.54,0.53 l -4.24,0.01 q -0.5,0.01 -0.5,-0.5 v -26.5 q 0,-0.51 0.5,-0.51 l 4.12,0.01 q 0.61,0.01 0.6,0.62 l -0.08,3.1 q -0.02,0.84 0.48,0.17 z"
     id="path1226"
     style="fill:#1360a4;fill-opacity:1;stroke:none;stroke-width:0.3;stroke-miterlimit:4;stroke-dasharray:none;stroke-opacity:1" />
  <path
     fill="#ffffff"
     d="m 173.69,166.65441 -6.83,19.27 a 0.64,0.63 9.7 0 1 -0.6,0.42 l -3.96,0.01 q -0.44,0 -0.58,-0.42 l -8.93,-26.48 q -0.2,-0.6 0.43,-0.6 h 4.22 q 0.64,0 0.84,0.61 l 6.1,19.14 a 0.29,0.28 45.9 0 0 0.54,0.01 l 6.49,-18.26 a 2.72,2.72 0 0 1 5.13,0.01 l 6.46,18.24 a 0.28,0.28 0 0 0 0.53,-0.01 l 6.27,-19.21 q 0.17,-0.53 0.74,-0.53 h 4.24 q 0.74,0 0.5,0.7 l -9.05,26.3 q -0.17,0.5 -0.7,0.5 h -3.74 q -0.55,0 -0.73,-0.52 l -6.76,-19.18 q -0.3,-0.85 -0.61,0 z"
     id="path1228"
     style="fill:#1360a4;fill-opacity:1;stroke:none;stroke-width:0.3;stroke-miterlimit:4;stroke-dasharray:none;stroke-opacity:1" />
  <rect
     fill="#ffffff"
     x="256.89001"
     y="158.85442"
     width="5.3600001"
     height="27.5"
     rx="0.34999999"
     id="rect1230"
     style="fill:#1360a4;fill-opacity:1;stroke:none;stroke-width:0.3;stroke-miterlimit:4;stroke-dasharray:none;stroke-opacity:1" />
  <rect
     fill="#ffffff"
     x="436.13"
     y="158.85442"
     width="5.3800001"
     height="27.5"
     rx="0.38"
     id="rect1232"
     style="fill:#1360a4;fill-opacity:1;stroke:none;stroke-width:0.3;stroke-miterlimit:4;stroke-dasharray:none;stroke-opacity:1" />
  <path
     fill="#ffffff"
     d="m 656.07,364.22441 v 5.38 h -816 v -4.78 q 3.5,3.09 9.37,2.87 3.19,-0.12 3.27,-0.12 150.53,0.06 301.08,0.02 h 219.75 q 136,0.02 272.03,0.01 6.91,0 10.5,-3.38 z"
     id="path1246" />
</svg>
